HIERARCHY
ROOT Hips
{
  OFFSET 13.6774 106.653 -34.4427
  CHANNELS 6 Xposition Yposition Zposition Zrotation Xrotation Yrotation
  JOINT ToSpine
  {
    OFFSET -2.69724 7.43032 -0.144315
    CHANNELS 3 Zrotation Xrotation Yrotation
    JOINT Spine
    {
      OFFSET -0.0310711 10.7595 1.96963
      CHANNELS 3 Zrotation Xrotation Yrotation
      JOINT Spine1
      {
        OFFSET 19.9056 3.91189 0.764692
        CHANNELS 3 Zrotation Xrotation Yrotation
        JOINT Neck
        {
          OFFSET 25.9749 7.03908 -0.130764
          CHANNELS 3 Zrotation Xrotation Yrotation
          JOINT Head
          {
            OFFSET 9.52751 0.295786 -0.907742
            CHANNELS 3 Zrotation Xrotation Yrotation
            End Site
            {
              OFFSET 16.4037 0.713936 2.7358
            }
          }
        }
        JOINT LeftShoulder
        {
          OFFSET 17.7449 4.33886 11.7777
          CHANNELS 3 Zrotation Xrotation Yrotation
          JOINT LeftArm
          {
            OFFSET 0.911315 1.27913 9.80584
            CHANNELS 3 Zrotation Xrotation Yrotation
            JOINT LeftForeArm
            {
              OFFSET 28.6126 1.18197 -3.53199
              CHANNELS 3 Zrotation Xrotation Yrotation
              JOINT LeftHand
              {
                OFFSET 27.5088 0.0218783 0.327423
                CHANNELS 3 Zrotation Xrotation Yrotation
                End Site
                {
                  OFFSET 18.6038 -0.000155887 0.382096
                }
              }
            }
          }
        }
        JOINT RightShoulder
        {
          OFFSET 17.1009 2.89543 -12.2328
          CHANNELS 3 Zrotation Xrotation Yrotation
          JOINT RightArm
          {
            OFFSET 1.4228 0.178766 -10.211
            CHANNELS 3 Zrotation Xrotation Yrotation
            JOINT RightForeArm
            {
              OFFSET 28.733 1.87905 2.64907
              CHANNELS 3 Zrotation Xrotation Yrotation
              JOINT RightHand
              {
                OFFSET 27.4588 0.290562 -0.101845
                CHANNELS 3 Zrotation Xrotation Yrotation
                End Site
                {
                  OFFSET 17.8396 -0.255518 -0.000602873
                }
              }
            }
          }
        }
      }
    }
  }
  JOINT LeftUpLeg
  {
    OFFSET -5.61296 -2.22332 -10.2353
    CHANNELS 3 Zrotation Xrotation Yrotation
    JOINT LeftLeg
    {
      OFFSET 2.56703 -44.7417 -7.93097
      CHANNELS 3 Zrotation Xrotation Yrotation
      JOINT LeftFoot
      {
        OFFSET 3.16933 -46.5642 -3.96578
        CHANNELS 3 Zrotation Xrotation Yrotation
        JOINT LeftToeBase
        {
          OFFSET 0.346054 -6.02161 12.8035
          CHANNELS 3 Zrotation Xrotation Yrotation
          End Site
          {
            OFFSET 0.134235 -1.35082 5.13018
          }
        }
      }
    }
  }
  JOINT RightUpLeg
  {
    OFFSET -5.7928 -1.72406 10.6446
    CHANNELS 3 Zrotation Xrotation Yrotation
    JOINT RightLeg
    {
      OFFSET -2.57161 -44.7178 -7.85259
      CHANNELS 3 Zrotation Xrotation Yrotation
      JOINT RightFoot
      {
        OFFSET -3.10148 -46.5936 -4.03391
        CHANNELS 3 Zrotation Xrotation Yrotation
        JOINT RightToeBase
        {
          OFFSET -0.0828122 -6.13587 12.8035
          CHANNELS 3 Zrotation Xrotation Yrotation
          End Site
          {
            OFFSET -0.131328 -1.35082 5.13018
          }
        }
      }
    }
  }
}
MOTION
Frames: 16
Frame Time: 0.03333333333333333
0.0000 93.1000 0.0000 75.1556 -31.8611 -13.3542 -71.2062 -0.0896 88.1617 106.7142 71.2523 -21.4639 0.1056 21.1047 2.2524 -144.5696 32.0560 167.3987 -146.9726 71.9475 -177.4977 -0.1746 -12.1158 -32.0776 -86.1887 49.0041 -64.6716 15.9128 21.2989 -37.8759 0.0233 0.0040 -0.0882 -2.1138 4.9226 43.3969 -82.6095 -29.8687 80.1861 15.0703 -10.1736 56.9576 0.4691 -0.0869 0.3153 -25.8749 5.8751 96.2118 -9.2033 69.2234 1.6710 -1.1241 -11.4902 -1.4354 6.9066 -17.6096 18.6966 -32.2660 -2.2614 88.0699 4.2249 64.5100 -8.2978 -9.4603 -20.4969 1.4381 2.6748 -4.6678 -17.5741 
0.0000 93.1000 0.0000 73.9523 -32.1343 -12.7708 -71.0642 -0.2880 88.3109 106.5073 71.3724 -21.8663 -0.0840 21.4013 2.2431 -143.7575 32.5312 167.4793 -146.9670 71.9553 -177.6922 -0.3751 -12.5577 -31.1676 -85.9728 48.7863 -62.5511 14.2042 23.4430 -33.6404 0.1828 0.2405 0.0144 -2.0656 4.9738 42.1933 -84.5714 -31.0411 80.8386 16.7067 -8.7746 62.6442 0.3871 -0.3373 0.4763 -25.6797 4.1024 94.3693 -7.2973 62.5303 -2.2793 -2.0970 -8.9005 -1.1730 5.7745 -14.6484 13.8912 -35.2666 -1.2014 89.2342 3.2346 62.0007 -7.2194 -8.2539 -21.3786 1.3170 2.4286 -3.6156 -20.1194 
0.0000 93.1000 0.0000 74.2043 -33.0211 -13.9711 -70.9839 0.3121 88.1151 107.3334 71.6308 -22.0054 -0.3761 22.2518 2.2111 -143.2333 32.1625 167.2256 -148.1463 71.8182 -177.5240 0.3259 -11.9833 -30.9195 -86.7985 48.6789 -59.4727 13.0813 24.9292 -30.6448 0.1851 -0.4531 -0.1447 -2.2177 5.4727 41.9807 -85.3438 -30.5998 81.0298 16.3540 -7.8588 66.7518 0.1290 0.5282 -0.1636 -27.4799 3.9352 92.9299 -5.4248 55.8319 -9.2401 -4.5516 -5.5748 -0.0455 5.7992 -14.8832 13.3259 -37.6412 -1.1696 90.2841 3.0046 59.0918 -6.3624 -9.1582 -21.9014 1.4744 2.6703 -3.1436 -22.8659 
0.0000 93.1000 0.0000 73.2583 -34.1653 -14.9514 -70.8663 0.0205 87.9377 106.6301 72.9139 -20.5508 -0.4935 22.7267 1.9479 -144.7073 32.1376 168.4435 -148.9896 71.9792 -177.1280 0.3392 -11.3281 -30.9191 -89.5335 48.6961 -55.4448 12.4783 25.7966 -29.6543 -0.2616 -0.2604 0.1857 -2.2580 5.1862 41.3128 -85.3188 -30.8071 81.8788 16.3047 -6.2023 69.9337 -0.1261 0.3806 -0.0925 -29.3012 3.0208 92.9022 -4.3756 51.0601 -13.2728 -5.8208 -4.1683 0.4955 4.9308 -15.3988 12.2233 -40.0571 -0.7686 92.2516 1.9592 55.9625 -7.7682 -8.7862 -21.7123 1.0429 2.0036 -4.0092 -18.1612 
0.0000 93.1000 0.0000 72.0143 -34.9269 -15.0888 -71.0607 -0.1989 87.8705 105.7082 73.1342 -18.7408 -0.8110 23.2541 1.7831 -145.7352 32.2151 168.2138 -148.2386 71.1464 -178.0147 0.1208 -10.7889 -30.1521 -90.1310 49.9350 -52.3082 11.4169 23.5532 -29.5775 -0.1862 0.2831 0.2925 -2.1156 5.3522 41.1366 -85.0497 -31.2550 82.1109 15.6795 -5.3438 72.8522 -0.0648 -0.2794 -0.0121 -31.5379 2.8857 93.4460 -4.6557 47.1774 -16.1874 -7.4441 -0.8779 0.4554 4.9711 -14.6636 12.7038 -42.0314 -0.0922 92.9073 1.7338 53.3234 -7.0309 -8.6663 -20.6933 1.1584 2.2127 -4.8837 -17.1676 
0.0000 93.1000 0.0000 70.9651 -35.7531 -16.2933 -71.1061 -0.8362 87.9379 104.7696 73.8231 -16.4823 -1.0737 23.5305 2.2360 -145.7534 32.2341 168.4212 -147.1179 71.2001 -178.9731 -0.1427 -10.2062 -30.1432 -89.4540 51.5756 -50.2607 10.0537 20.3328 -28.7730 -0.4329 0.5602 0.7059 -2.4210 5.1546 41.1284 -85.1746 -31.2080 81.1656 16.0716 -5.0421 74.9927 -0.2434 -0.5503 -0.3774 -34.3507 2.5289 94.1500 -4.2523 43.9296 -15.2201 -7.6376 1.0453 0.9312 3.7134 -10.8947 9.0403 -44.8895 -1.1295 93.1551 1.7621 50.3360 -5.1279 -9.2086 -20.4682 0.7149 1.7763 -5.7864 -18.8637 
0.0000 93.1000 0.0000 69.9182 -37.0138 -16.5398 -71.0107 1.5220 88.0501 100.1025 74.0241 -11.4407 0.1225 23.7376 2.6120 -147.0125 31.2000 168.9142 -147.1412 70.5712 -179.9281 1.3801 -9.5764 -28.8305 -91.6186 52.7553 -47.1477 8.0928 18.6350 -28.8775 0.1756 0.4254 -0.3304 -0.6630 4.8054 41.0639 -85.1080 -29.7396 80.6799 15.9469 -5.0326 74.8585 1.2000 -0.3362 1.0290 -36.9644 3.3146 94.5814 -4.3717 40.9841 -16.1714 -4.8515 1.6834 -1.3202 3.7622 -11.5406 6.4670 -46.4048 -0.9886 94.4818 0.9479 47.1242 -5.6633 -8.7733 -19.9277 3.5295 3.5932 -6.1515 -13.0889 
0.0000 93.1000 0.0000 69.0460 -38.5627 -16.9418 -70.8597 0.6274 88.2676 95.8214 74.1775 -6.0748 1.0603 23.9118 2.1168 -149.0020 31.2546 168.6409 -146.3068 69.8681 178.0929 0.9704 -9.6662 -27.9600 -91.8081 54.1271 -45.9085 8.1498 17.0207 -29.5917 0.2133 0.1946 -0.2420 -1.6818 5.1529 41.3426 -83.8985 -29.9330 80.2361 16.0608 -4.4722 74.6792 0.4354 -0.0710 0.2820 -38.7345 3.4291 97.0462 -3.8906 39.3580 -16.8295 -2.8442 3.2183 -0.6534 5.3896 -16.5215 8.8121 -47.8944 -2.0907 93.8121 0.8542 44.9921 -4.7964 -7.7037 -19.2663 2.1935 2.6969 -7.7618 -13.0079 
0.0000 93.1000 0.0000 67.7922 -37.8745 -17.5425 -70.9044 0.8701 88.2547 92.8894 73.8731 -3.9098 1.0829 24.1008 2.6499 -150.0118 31.0702 169.8436 -147.2919 69.5490 178.3799 1.0891 -9.7489 -28.9218 -91.9799 53.9445 -46.1479 8.2935 16.3260 -29.6535 0.4918 0.0742 -0.4389 -1.5831 4.7212 42.3484 -85.1292 -29.3317 78.9266 16.0346 -5.3667 73.7276 0.3296 0.0192 0.2363 -39.1778 1.7258 96.1651 -2.6806 38.3029 -12.1497 1.6793 -1.0441 -1.5871 2.1761 -7.9252 2.8955 -50.0976 -2.6870 93.9701 0.8743 42.5608 -4.9570 -7.8757 -17.9969 2.4561 1.6552 -9.1991 -11.0884 
0.0000 93.1000 0.0000 68.4062 -37.0277 -17.5086 -70.8305 0.8348 88.2503 91.0448 74.0401 -3.4118 0.9469 23.0539 4.2459 -151.1165 31.1339 169.4230 -145.9389 69.2667 177.9647 0.9410 -9.9398 -29.1203 -91.3614 53.7463 -49.0083 9.2256 17.5879 -29.6786 0.5227 0.1319 -0.0917 -1.5983 4.1911 42.9054 -85.8487 -29.0564 77.7384 15.9667 -6.2768 72.1176 0.4888 -0.0723 0.4922 -40.6452 0.9075 95.6704 -3.2004 36.7689 -10.1091 2.7611 -3.0123 -1.7839 1.1687 -4.7440 -0.2395 -50.9570 -3.1848 93.8623 0.8449 40.9510 -3.8708 -7.2016 -15.7769 2.1530 2.6123 -10.1083 -13.7588 
0.0000 93.1000 0.0000 66.9688 -37.1312 -16.3650 -70.8974 0.5395 88.2086 89.8024 74.1301 -0.3813 0.1100 23.0098 4.4097 -150.9556 31.1158 169.6963 -146.5453 69.0878 178.4682 0.5515 -10.7938 -29.9377 -90.3463 53.6855 -51.1909 9.7412 18.8090 -31.0123 0.4467 0.1266 -0.3917 -1.8282 4.7985 43.3098 -86.6699 -28.6732 76.2193 15.9976 -6.2329 69.6825 0.9699 -0.1472 0.3584 -41.1275 0.2996 94.0589 -2.6203 35.9759 -8.8362 1.9938 -5.6068 -1.8409 0.0080 -1.9349 0.8458 -51.9833 -3.1475 92.3970 0.8095 39.1830 -3.1176 -6.6071 -14.0954 2.0826 1.7957 -11.5607 -9.9334 
0.0000 93.1000 0.0000 66.9859 -37.5341 -16.0862 -71.0839 -1.0097 88.2057 89.0983 73.5424 -0.9139 0.0143 21.8229 3.7420 -150.1100 30.6688 170.1090 -145.9308 69.2966 179.0555 -0.0762 -11.7824 -30.3086 -91.3857 52.6748 -53.1350 12.4827 20.2370 -33.3904 -1.0512 -0.6297 0.6584 -3.7341 5.3932 44.2579 -87.9176 -29.2714 74.9923 17.9803 -6.9364 67.2133 -0.9006 0.7458 -1.0804 -42.9923 -0.0661 94.2810 -3.2818 35.3463 -7.9525 1.2145 -6.1615 0.6695 0.1137 -3.4331 1.2671 -51.2815 -3.4610 91.0140 0.8635 40.0604 -2.7744 -6.7521 -11.5130 -0.7641 0.9812 -15.2638 -9.5975 
0.0000 93.1000 0.0000 66.7620 -38.2870 -16.1339 -70.7454 0.3094 88.0359 91.6085 73.2462 -3.4395 -0.2132 21.5175 5.4722 -151.3079 29.5477 169.8200 -148.8951 68.7609 -178.4140 0.4334 -12.0349 -30.0226 -90.7397 50.9476 -55.2204 12.3080 17.2309 -36.0487 0.2338 -0.0687 -0.1625 -2.2436 4.6995 45.2245 -87.6803 -28.6931 74.9475 15.2439 -8.7304 63.2842 0.7265 0.0896 0.3103 -42.8820 -1.0643 93.3161 -2.3788 33.8714 -10.2147 1.9437 -5.5509 -1.2180 -0.1724 -3.9541 3.6777 -51.3167 -5.6153 90.9499 0.8094 40.0970 -1.0382 -7.8637 -8.0279 1.5668 2.0380 -18.9185 -10.4054 
0.0000 93.1000 0.0000 66.9897 -38.9344 -15.8871 -70.9020 -0.6746 88.1120 92.9981 73.1004 -4.9736 -0.6957 21.3854 4.8988 -150.2849 29.1927 170.2690 -146.6638 68.0656 -180.6758 -0.2539 -12.2685 -30.0065 -90.5671 49.8892 -57.1580 12.2784 15.9731 -38.5766 -0.0818 0.3481 0.2968 -2.6761 4.9506 44.6708 -87.1474 -29.9249 75.0751 16.0024 -10.1244 60.7509 -0.1421 -0.3773 0.0266 -44.5214 -0.8361 93.5431 -2.7722 32.9169 -8.7540 1.2392 -7.0923 -0.8400 -0.3940 -3.0338 1.9385 -51.4983 -4.8190 91.7508 1.1678 41.2069 -0.3561 -6.1855 -7.2399 0.5108 1.6849 -15.3007 -13.5615 
0.0000 93.1000 0.0000 65.6989 -39.3368 -15.3968 -71.0200 -0.6434 88.1107 92.0435 73.0820 -3.9122 -0.3908 21.0562 4.7613 -151.2224 28.5501 169.8003 -149.1828 66.8332 -179.1070 -0.2050 -12.0411 -30.0454 -91.0601 48.8694 -58.8104 11.7255 13.6195 -41.6749 -0.1402 0.4130 0.4056 -2.5745 4.9697 44.0048 -87.1880 -31.1776 73.7932 16.8396 -12.0701 59.0885 -0.4359 -0.3763 0.0233 -45.6634 -0.9557 94.3647 -2.0681 32.0016 -8.8071 2.4585 -7.9182 -1.0219 -1.1256 0.2360 -0.2770 -51.3816 -4.5843 91.3759 2.0626 42.2471 2.7746 -6.9404 -6.0222 0.5181 1.8785 -17.7510 -17.9490 
0.0000 93.1000 0.0000 65.9283 -39.8399 -15.7871 -70.9586 0.1873 88.2293 92.1089 72.6137 -5.6286 -0.5500 20.6925 5.8295 -152.2290 27.5144 170.8218 -149.4800 66.3107 -177.4312 0.5156 -12.0745 -30.1254 -90.3542 47.3992 -61.0444 11.2122 11.2751 -46.3380 -0.0136 -0.3720 0.1449 -2.5506 5.0205 44.3184 -87.3938 -30.9756 73.8707 16.1680 -11.8421 57.1022 -0.4352 0.5842 -0.2574 -46.3293 -0.1013 95.7920 -2.0418 30.8471 -8.5987 1.8806 -7.6918 -0.6050 -0.6035 0.6440 -1.1980 -50.2636 -4.6601 91.1322 1.9469 41.9450 3.1817 -7.2242 -6.9101 0.9761 1.3868 -18.5047 -19.1621 
